# exported by https://3dviewer.net
mtllib model.mtl
g mesh_id1
v -0.5285000205039978 -0.37449997663497925 0
v 0.5285000205039978 -0.37449997663497925 0
v -0.5285000205039978 0.37449997663497925 0
v 0.5285000205039978 0.37449997663497925 0
vn 0 0 999.9999525025509
vn 0 0 999.9999525025509
vn 0 0 999.9999525025509
vn 0 0 999.9999525025509
vt 0 -1
vt 1 -1
vt 0 0
vt 1 0
usemtl Material
f 1/1/1 2/2/2 3/3/3
f 2/2/2 4/4/4 3/3/3
g mesh_id31
v 0.524859658871577 0.3676013152859312 -0.20792503634784776
v -0.526086133053326 -0.3754999970830184 -0.20792503634784776
v -0.526086133053326 0.3676013152859312 -0.20792503634784776
v 0.524859658871577 -0.3754999970830184 -0.20792503634784776
v -0.526086133053326 0.3676013152859312 -0.00810524841453475
v 0.524859658871577 -0.3754999970830184 -0.00810524841453475
v 0.524859658871577 0.3676013152859312 -0.00810524841453475
v -0.526086133053326 -0.3754999970830184 -0.00810524841453475
v 0.524859658871577 0.3676013152859312 -0.00810524841453475
v 0.524859658871577 -0.3754999970830184 -0.20792503634784776
v 0.524859658871577 0.3676013152859312 -0.20792503634784776
v 0.524859658871577 -0.3754999970830184 -0.00810524841453475
v -0.526086133053326 0.3676013152859312 -0.20792503634784776
v -0.526086133053326 -0.3754999970830184 -0.00810524841453475
v -0.526086133053326 0.3676013152859312 -0.00810524841453475
v -0.526086133053326 -0.3754999970830184 -0.20792503634784776
v -0.526086133053326 0.3676013152859312 -0.20792503634784776
v 0.524859658871577 0.3676013152859312 -0.00810524841453475
v 0.524859658871577 0.3676013152859312 -0.20792503634784776
v -0.526086133053326 0.3676013152859312 -0.00810524841453475
v -0.526086133053326 -0.3754999970830184 -0.00810524841453475
v 0.524859658871577 -0.3754999970830184 -0.20792503634784776
v 0.524859658871577 -0.3754999970830184 -0.00810524841453475
v -0.526086133053326 -0.3754999970830184 -0.20792503634784776
vn 0 0 -999.9999525025509
vn 0 0 -999.9999525025509
vn 0 0 -999.9999525025509
vn 0 0 -999.9999525025509
vn 0 0 999.9999525025509
vn 0 0 999.9999525025509
vn 0 0 999.9999525025509
vn 0 0 999.9999525025509
vn 226.0639268387348 0 0
vn 226.0639268387348 0 0
vn 226.0639268387348 0 0
vn 226.0639268387348 0 0
vn -226.0639268387348 0 0
vn -226.0639268387348 0 0
vn -226.0639268387348 0 0
vn -226.0639268387348 0 0
vn 0 268.89977869285786 0
vn 0 268.89977869285786 0
vn 0 268.89977869285786 0
vn 0 268.89977869285786 0
vn 0 -268.89977869285786 0
vn 0 -268.89977869285786 0
vn 0 -268.89977869285786 0
vn 0 -268.89977869285786 0
f 5//5 6//6 7//7
f 5//5 8//8 6//6
f 9//9 10//10 11//11
f 9//9 12//12 10//10
f 13//13 14//14 15//15
f 13//13 16//16 14//14
f 17//17 18//18 19//19
f 17//17 20//20 18//18
f 21//21 22//22 23//23
f 21//21 24//24 22//22
f 25//25 26//26 27//27
f 25//25 28//28 26//26
