# exported by https://3dviewer.net
mtllib model.mtl
g mesh_id1
v -0.4350000023841858 -0.3920000195503235 0
v 0.4350000023841858 -0.3920000195503235 0
v -0.4350000023841858 0.3920000195503235 0
v 0.4350000023841858 0.3920000195503235 0
vn 0 0 999.999952502551
vn 0 0 999.999952502551
vn 0 0 999.999952502551
vn 0 0 999.999952502551
vt 0 -1
vt 1 -1
vt 0 0
vt 1 0
usemtl Material
f 1/1/1 2/2/2 3/3/3
f 2/2/2 4/4/4 3/3/3
g mesh_id39
v 0.42949939776243795 0.3895480254944417 -0.2596031780054897
v -0.435055576041659 -0.4073119884636256 -0.2596031780054897
v -0.435055576041659 0.3895480254944417 -0.2596031780054897
v 0.42949939776243795 -0.4073119884636256 -0.2596031780054897
v -0.435055576041659 0.3895480254944417 -0.004394883413043615
v 0.42949939776243795 -0.4073119884636256 -0.004394883413043615
v 0.42949939776243795 0.3895480254944417 -0.004394883413043615
v -0.435055576041659 -0.4073119884636256 -0.004394883413043615
v 0.42949939776243795 0.3895480254944417 -0.004394883413043615
v 0.42949939776243795 -0.4073119884636256 -0.2596031780054897
v 0.42949939776243795 0.3895480254944417 -0.2596031780054897
v 0.42949939776243795 -0.4073119884636256 -0.004394883413043615
v -0.435055576041659 0.3895480254944417 -0.2596031780054897
v -0.435055576041659 -0.4073119884636256 -0.004394883413043615
v -0.435055576041659 0.3895480254944417 -0.004394883413043615
v -0.435055576041659 -0.4073119884636256 -0.2596031780054897
v -0.435055576041659 0.3895480254944417 -0.2596031780054897
v 0.42949939776243795 0.3895480254944417 -0.004394883413043615
v 0.42949939776243795 0.3895480254944417 -0.2596031780054897
v -0.435055576041659 0.3895480254944417 -0.004394883413043615
v -0.435055576041659 -0.4073119884636256 -0.004394883413043615
v 0.42949939776243795 -0.4073119884636256 -0.2596031780054897
v 0.42949939776243795 -0.4073119884636256 -0.004394883413043615
v -0.435055576041659 -0.4073119884636256 -0.2596031780054897
vn 0 0 -1
vn 0 0 -1
vn 0 0 -1
vn 0 0 -1
vn 0 0 1
vn 0 0 1
vn 0 0 1
vn 0 0 1
vn 1 0 0
vn 1 0 0
vn 1 0 0
vn 1 0 0
vn -1 0 0
vn -1 0 0
vn -1 0 0
vn -1 0 0
vn 0 1 0
vn 0 1 0
vn 0 1 0
vn 0 1 0
vn 0 -1 0
vn 0 -1 0
vn 0 -1 0
vn 0 -1 0
f 5//5 6//6 7//7
f 5//5 8//8 6//6
f 9//9 10//10 11//11
f 9//9 12//12 10//10
f 13//13 14//14 15//15
f 13//13 16//16 14//14
f 17//17 18//18 19//19
f 17//17 20//20 18//18
f 21//21 22//22 23//23
f 21//21 24//24 22//22
f 25//25 26//26 27//27
f 25//25 28//28 26//26
