# Blender 4.5.3 LTS
# www.blender.org
mtllib Lavadero.mtl
o Cube.012
v -1.509816 -0.681796 -1.004247
v -1.509816 0.365740 0.995753
v -1.509816 -0.443272 -1.004247
v -1.509816 0.604264 0.995753
v -1.397741 -0.681796 -1.004247
v -1.397741 0.365740 0.995753
v -1.397741 -0.443272 -1.004247
v -1.397741 0.604264 0.995753
v 1.398546 0.365740 -1.004247
v 1.398546 -0.681796 0.995753
v 1.398546 0.604264 -1.004247
v 1.398546 -0.443272 0.995753
v 1.465046 0.365740 -1.004247
v 1.465046 -0.681796 0.995753
v 1.465046 0.604264 -1.004247
v 1.465046 -0.443272 0.995753
v -1.423663 -1.019829 0.888594
v -1.423663 -0.773395 0.888594
v -1.423663 -1.019829 0.975687
v -1.423663 -0.773395 0.975687
v 1.583861 -1.019829 0.888594
v 1.583861 -0.773395 0.888594
v 1.583861 -1.019829 0.975687
v 1.583861 -0.773395 0.975687
v -1.423663 -1.019830 -0.986664
v -1.423663 -0.773395 -0.986664
v -1.423663 -1.019830 -0.899571
v -1.423663 -0.773395 -0.899571
v 1.583861 -1.019830 -0.986664
v 1.583861 -0.773395 -0.986664
v 1.583861 -1.019830 -0.899571
v 1.583861 -0.773395 -0.899571
v -1.500000 0.749859 1.000000
v -1.500000 1.149859 1.000000
v -1.500000 0.749859 -1.000000
v -1.500000 1.149859 -1.000000
v 1.500000 0.749859 1.000000
v 1.500000 1.149859 1.000000
v 1.500000 0.749859 -1.000000
v 1.500000 1.149859 -1.000000
v -1.387964 -1.263567 -0.652496
v -1.387964 0.736433 -0.652496
v -1.387964 -1.263567 -0.891019
v -1.387964 0.736433 -0.891019
v -1.104979 -1.263567 -0.652496
v -1.104979 0.736433 -0.652496
v -1.104979 -1.263567 -0.891019
v -1.104979 0.736433 -0.891019
v -1.387964 -1.263567 0.895185
v -1.387964 0.736433 0.895185
v -1.387964 -1.263567 0.656661
v -1.387964 0.736433 0.656661
v -1.104979 -1.263567 0.895185
v -1.104979 0.736433 0.895185
v -1.104979 -1.263567 0.656661
v -1.104979 0.736433 0.656661
v 1.109213 -1.263567 -0.652496
v 1.109213 0.736433 -0.652496
v 1.109213 -1.263567 -0.891019
v 1.109213 0.736433 -0.891019
v 1.392198 -1.263567 -0.652496
v 1.392198 0.736433 -0.652496
v 1.392198 -1.263567 -0.891019
v 1.392198 0.736433 -0.891019
v 1.109213 -1.263567 0.895185
v 1.109213 0.736433 0.895185
v 1.109213 -1.263567 0.656661
v 1.109213 0.736433 0.656661
v 1.392198 -1.263567 0.895185
v 1.392198 0.736433 0.895185
v 1.392198 -1.263567 0.656661
v 1.392198 0.736433 0.656661
v -1.387964 -2.004175 -0.891019
v -1.387964 -2.004175 -0.652496
v -1.104979 -2.004175 -0.891019
v -1.104979 -2.004175 -0.652496
v -1.387964 -2.004175 0.656661
v -1.387964 -2.004175 0.895185
v -1.104979 -2.004175 0.656661
v -1.104979 -2.004175 0.895185
v 1.109213 -2.004175 -0.891019
v 1.109213 -2.004175 -0.652496
v 1.392198 -2.004175 -0.891019
v 1.392198 -2.004175 -0.652496
v 1.109213 -2.004175 0.656661
v 1.109213 -2.004175 0.895185
v 1.392198 -2.004175 0.656661
v 1.392198 -2.004175 0.895185
v -1.500000 1.156472 1.000000
v -1.420975 1.556472 0.947317
v -1.500000 1.156472 -1.000000
v -1.421297 1.556472 -0.947532
v 1.500000 1.156472 1.000000
v 1.423643 1.556472 0.949095
v 1.500000 1.156472 -1.000000
v 1.421826 1.556472 -0.947884
v 0.750000 1.156472 -1.000000
v 0.000000 1.156472 -1.000000
v -0.750000 1.156472 -1.000000
v -0.828703 1.556472 -0.947532
v 0.000000 1.556472 -0.946941
v 0.828175 1.556472 -0.947884
v -0.750000 1.156472 1.000000
v 0.000000 1.156472 1.000000
v 0.750000 1.156472 1.000000
v 0.826357 1.556472 0.949095
v 0.000000 1.556472 0.946941
v -0.829025 1.556472 0.947317
v -1.500000 1.156472 -0.000000
v -1.421297 1.556472 -0.052468
v 1.500000 1.156472 -0.000000
v 1.421826 1.556472 -0.052116
v 0.828175 1.556472 -0.052116
v -0.828703 1.556472 -0.052468
v -0.750000 1.156472 -0.000000
v 0.000000 1.156472 -0.000000
v 0.750000 1.156472 -0.000000
v -1.420975 1.556472 0.052683
v -1.500000 1.556472 -1.000000
v -0.670412 1.556472 -0.946941
v -0.829025 1.556472 0.052683
v -0.670412 1.556472 0.946941
v -1.500000 1.556472 1.000000
v -0.670412 1.556472 -0.000000
v -1.500000 1.556472 -0.000000
v 0.670412 1.556472 -0.946941
v 1.500000 1.556472 -1.000000
v 1.423643 1.556472 0.050905
v 0.826357 1.556472 0.050905
v 1.500000 1.556472 -0.000000
v 1.500000 1.556472 1.000000
v 0.670412 1.556472 0.946941
v 0.670412 1.556472 -0.000000
v -0.750000 1.556472 -1.000000
v 0.000000 1.556472 -1.000000
v 0.750000 1.556472 -1.000000
v 0.750000 1.556472 1.000000
v 0.000000 1.556472 1.000000
v -0.750000 1.556472 1.000000
v 0.750000 1.556472 -0.000000
v -0.750000 1.556472 -0.000000
v 0.000000 1.205417 -0.000000
v 0.000000 1.205417 0.946941
v 0.000000 1.205417 -0.946941
v -0.670412 1.205417 -0.000000
v 0.670412 1.205417 -0.000000
v -1.421297 1.205417 -0.052468
v -1.421297 1.205417 -0.947532
v -0.828703 1.205417 -0.947532
v -0.828703 1.205417 -0.052468
v -0.829025 1.205417 0.947317
v -1.420975 1.205417 0.947317
v -0.829025 1.205417 0.052683
v -1.420975 1.205417 0.052683
v 0.828175 1.205417 -0.947884
v 1.421826 1.205417 -0.947884
v 1.421826 1.205417 -0.052116
v 0.828175 1.205417 -0.052116
v 1.423643 1.205417 0.050905
v 1.423643 1.205417 0.949095
v 0.826357 1.205417 0.949095
v 0.826357 1.205417 0.050905
v -0.670412 1.205417 -0.946941
v 0.670412 1.205417 -0.946941
v 0.670412 1.205417 0.946941
v -0.670412 1.205417 0.946941
vn -1.0000 -0.0000 -0.0000
vn -0.0000 0.8858 -0.4640
vn 1.0000 -0.0000 -0.0000
vn -0.0000 -0.8858 0.4640
vn -0.0000 -0.0000 -1.0000
vn -0.0000 -0.0000 1.0000
vn -0.0000 0.8858 0.4640
vn -0.0000 -0.8858 -0.4640
vn -0.0000 1.0000 -0.0000
vn -0.0000 -1.0000 -0.0000
vt 0.011886 0.850868
vt -0.007175 0.153966
vt 0.103413 0.160925
vt 0.122473 0.846146
vt 0.692018 0.020295
vt 0.706098 0.503065
vt 0.625000 0.500000
vt 0.618293 0.021124
vt 0.500333 0.005550
vt 0.455432 0.745278
vt 0.396452 0.746107
vt 0.404490 0.002486
vt 0.375000 0.750000
vt 0.625000 0.750000
vt 0.625000 1.000000
vt 0.375000 1.000000
vt 0.125000 0.500000
vt 0.375000 0.500000
vt 0.125000 0.750000
vt 0.875000 0.500000
vt 0.875000 0.750000
vt 0.507705 -0.003893
vt 0.470177 0.724154
vt 0.418570 0.724983
vt 0.456098 -0.003065
vt 0.375000 0.250000
vt 0.625000 0.250000
vt -0.222616 0.745637
vt 1.284798 0.745815
vt 1.257372 0.963772
vt -0.240562 0.958945
vt 0.375000 0.000000
vt 0.625000 0.000000
vt 0.389745 0.016402
vt 0.285864 0.012508
vt 0.285865 0.402667
vt 0.382372 0.398774
vt 0.610920 -0.005301
vt 0.529157 -0.001408
vt 0.543902 0.618456
vt 0.625665 0.622350
vt 0.485588 0.573144
vt 0.507040 0.783382
vt 0.366962 0.776425
vt 0.375000 0.562293
vt 0.338137 0.181578
vt 0.425942 0.181578
vt 0.448060 1.000000
vt 0.672042 0.005550
vt 0.722984 -0.002236
vt 0.722984 0.905732
vt 0.672042 0.913519
vt 0.330765 0.985388
vt 0.226884 0.981495
vt 0.212139 0.008997
vt 0.323392 0.005104
vt 0.832730 0.132260
vt 0.734954 0.140046
vt 0.734954 0.609954
vt 0.817985 0.602167
vt 0.696690 0.971593
vt 0.581199 0.975486
vt 0.605583 0.047505
vt 0.718807 0.040916
vt 0.666308 0.988300
vt 0.555848 0.992193
vt 0.563221 0.004753
vt 0.644191 0.004753
vt 0.342905 0.576469
vt 0.701272 0.576469
vt 0.701272 0.934836
vt 0.342905 0.934836
vt 0.463470 0.260851
vt 0.470177 0.770874
vt 0.366962 0.779489
vt 0.050609 0.904075
vt 0.035199 0.004722
vt 0.101552 0.009444
vt 0.116962 0.901010
vt 0.426608 0.122350
vt 0.455432 0.936050
vt 0.374335 0.940772
vt 0.352882 0.111498
vt 0.102217 0.376243
vt 0.086807 0.975812
vt 0.005709 0.972747
vt 0.006374 0.384858
vt 0.572620 0.508551
vt 0.489012 0.745725
vt 0.190687 0.003893
vt 0.167904 0.689115
vt 0.027827 0.689943
vt 0.043237 0.000829
vt 0.375000 -0.003065
vt 0.396452 0.682157
vt 0.307982 0.675199
vt 0.286530 -0.002236
vt 0.706763 0.090295
vt 0.742960 0.833916
vt 0.625000 0.826958
vt 0.596175 0.079444
vt 0.669900 0.002486
vt 0.669235 0.999171
vt 0.596175 -0.000579
vt 0.057982 0.140987
vt 0.115981 0.145709
vt 0.116962 0.048377
vt 0.060104 0.054116
vt 0.559313 -0.007787
vt 0.543902 0.996686
vt 0.470177 0.997514
vt 0.507705 -0.003065
vt -0.008371 0.849569
vt 0.005709 0.265573
vt 0.064689 0.262508
vt 0.057982 0.842611
vt 0.164886 0.897822
vt 0.156843 -0.001531
vt 0.245313 0.013461
vt 0.238611 0.893347
vt 0.522450 0.006379
vt 0.617628 1.010851
vt 0.484922 1.011680
vt 0.448725 0.003314
vt 0.607519 0.745312
vt 0.584391 0.542346
vt 0.539328 0.542346
vt 0.557265 0.745312
vt 0.485588 0.000000
vt 0.507040 0.774767
vt 0.440687 0.775596
vt 0.426608 0.000829
vt 0.515078 -0.003065
vt 0.514412 0.760023
vt 0.381707 0.756958
vt 0.375000 -0.010023
vt 0.235485 0.000077
vt 0.207319 0.883507
vt 0.285302 0.884090
vt 0.318013 -0.004434
vt 0.677273 0.991385
vt 0.713470 -0.001408
vt 0.772450 0.003314
vt 0.750998 0.992213
vt 0.401074 0.660922
vt 0.254846 0.650429
vt 0.244113 0.380371
vt 0.417042 0.384498
vt 0.584398 0.952452
vt 0.542445 0.953352
vt 0.537195 0.785868
vt 0.585607 0.788933
vt 0.468343 0.908626
vt 0.386894 0.915626
vt 0.424108 0.347204
vt 0.494898 0.358894
vt 0.079859 0.311433
vt 0.008040 0.303479
vt 0.007053 0.145999
vt 0.079508 0.150735
vt 0.417273 0.817315
vt 0.334245 0.814487
vt 0.352722 0.097604
vt 0.455937 0.101204
vt 0.467122 0.005804
vt 0.437632 0.386648
vt 0.367628 0.390159
vt 0.134839 0.226411
vt 0.053368 0.231595
vt 0.054144 0.365621
vt 0.136025 0.358612
vt 0.423184 1.003065
vt 0.504053 1.001600
vt 0.515078 0.743042
vt 0.419235 0.738320
vt 0.456754 0.089583
vt 0.375657 0.086705
vt 0.389317 0.254117
vt 0.468619 0.252092
vt 0.532107 0.005705
vt 0.500916 0.205206
vt 0.237206 0.207019
vt 0.220507 0.003625
vt 0.189478 -0.021703
vt 0.093864 -0.044234
vt 0.072727 -0.219433
vt 0.183315 -0.208581
vt 0.782495 -0.192990
vt 0.699309 -0.195227
vt 0.671907 0.086965
vt 0.742566 0.087947
vt 0.375000 0.038479
vt 0.375000 0.288479
vt 0.565020 0.279928
vt 0.580221 0.038479
vt -0.285496 1.223548
vt 0.011819 1.223548
vt 0.011819 1.966835
vt -0.285496 1.966835
vt 1.215044 0.331346
vt 1.484635 0.331346
vt 1.484635 0.836830
vt 1.215043 0.836830
vt 0.269394 1.223549
vt -0.095811 1.223549
vt -0.095811 0.310536
vt 0.269394 0.310536
vt 1.415157 0.419533
vt 1.731781 0.419533
vt 1.731781 1.013204
vt 1.415157 1.013204
vt -0.581092 0.205199
vt -0.581092 0.685280
vt -1.221200 0.685280
vt -1.221200 0.205199
vt 1.881549 -0.512583
vt 1.881549 -1.012750
vt 2.077815 -1.012750
vt 2.077815 -0.512583
vt 0.418332 0.217122
vt 0.401222 0.641125
vt 0.193619 0.646258
vt 0.193619 0.217122
vt 2.479055 -0.914630
vt 2.479055 0.017609
vt 2.113707 0.017609
vt 2.113707 -0.914630
vt 0.233447 0.985408
vt 0.198298 0.011911
vt 0.515720 0.008100
vt 0.553077 0.980153
vt -0.581092 -1.235042
vt -0.581092 -0.754961
vt -1.221200 -0.754961
vt -1.221200 -1.235042
vt -0.581092 -0.274881
vt -1.221200 -0.274881
vt 1.415157 -1.361479
vt 1.731781 -1.361479
vt 1.731781 -0.767808
vt 1.415157 -0.767808
vt 1.731781 -0.174138
vt 1.415157 -0.174138
vt 1.215044 -1.185106
vt 1.484635 -1.185106
vt 1.484635 -0.679622
vt 1.215044 -0.679622
vt 1.484635 -0.174138
vt 1.215044 -0.174138
vt 0.059015 -0.274881
vt 0.059015 0.205199
vt 0.059015 -0.754961
vt 0.059015 -1.235042
vt 0.226089 0.824528
vt 0.226089 0.295117
vt 0.422355 0.295117
vt 0.422355 0.824528
vt 1.063910 1.744340
vt 1.063910 2.679100
vt 0.698561 2.679100
vt 0.698561 1.744340
vt 1.498787 0.091750
vt 1.498787 0.591917
vt 1.302521 0.591917
vt 1.302521 0.091750
vt 1.980796 1.665289
vt 1.980796 1.997184
vt 1.784530 1.997184
vt 1.784530 1.665289
vt 0.059015 0.685280
vt 0.269394 2.136560
vt -0.095811 2.136560
vt -0.285496 0.480261
vt 0.011819 0.480261
vt 0.708283 0.620473
vt 1.208691 0.620473
vt 1.238024 0.664474
vt 0.678950 0.664474
vt 1.208691 0.289169
vt 1.238024 0.245168
vt 0.708283 0.289169
vt 0.678950 0.245168
vt 0.149329 0.289349
vt 0.149329 0.620293
vt 0.119875 0.664474
vt 0.119875 0.245168
vt 0.649496 0.289349
vt 0.649496 0.620293
vt 1.186251 -0.379298
vt 1.186251 -1.226897
vt 1.260661 -1.338512
vt 1.260661 -0.267681
vt 1.397042 -0.687761
vt 0.519932 -0.687761
vt 0.468902 -0.764306
vt 1.448072 -0.764306
vt -0.183438 -1.639616
vt 2.109673 -1.639615
vt 2.243087 -1.439492
vt -0.316850 -1.439492
vt 0.025088 -2.867194
vt 0.025088 -2.257961
vt -0.028395 -2.177734
vt -0.028395 -2.947420
vt 0.477231 -0.873804
vt -0.254784 -0.873804
vt -0.296272 -0.936034
vt 0.518718 -0.936034
vt 0.148335 -0.970060
vt 0.148335 -0.636133
vt 0.119875 -0.593444
vt 0.119875 -1.012750
vt -0.730905 -1.600130
vt 0.714975 -1.600130
vt 0.796921 -1.477212
vt -0.812850 -1.477212
vt -0.096403 -2.247407
vt -0.096403 -2.877747
vt -0.042681 -2.958329
vt -0.042681 -2.166824
vt 1.162149 0.715247
vt 1.162149 -0.827346
vt 1.284235 -0.827346
vt 1.284235 0.898376
vt 1.147563 0.685233
vt 1.147563 -1.225931
vt 1.298820 -1.452815
vt 1.298820 0.685233
vt 0.149539 -0.548948
vt 0.149539 -0.174138
vt 0.119875 -0.174138
vt 0.149539 0.200672
vt 0.477577 -1.424310
vt -0.441982 -1.424310
vt -0.493506 -1.501596
vt 0.477577 -1.501596
vt 0.678950 0.200672
vt 1.397135 -1.424310
vt 1.448660 -1.501596
vt 1.208360 0.200672
vt 1.587904 1.665048
vt 1.256960 1.665048
vt 1.256960 1.164881
vt 1.587904 1.164881
vt 0.842140 1.346054
vt 0.419254 1.346054
vt 0.419254 0.710125
vt 0.842140 0.710125
vt -0.248653 1.193884
vt -0.623464 1.193884
vt -0.623464 0.664474
vt -0.248653 0.664474
vt -0.998274 1.193884
vt -0.998274 0.664474
vt -0.792064 1.897568
vt -1.221200 1.897568
vt -1.221200 1.291424
vt -0.792064 1.291424
vt -0.248653 1.723295
vt -0.623464 1.723295
vt 0.853495 1.165275
vt 0.521600 1.165275
vt 0.521600 0.664474
vt 0.853495 0.664474
vt 1.588264 1.164881
vt 1.256960 1.164881
vt 1.256960 0.664474
vt 1.588264 0.664474
vt 2.053434 0.169622
vt 2.053434 0.592508
vt 1.804882 0.592508
vt 1.804882 0.169622
vt 0.823296 1.835156
vt 0.823296 2.214480
vt 0.598583 2.214480
vt 0.598583 1.835156
vt 2.057009 2.855257
vt 2.057009 1.985391
vt 2.397912 1.985391
vt 2.397912 2.855257
vt 1.784530 0.664474
vt 1.784530 1.039284
vt 1.588264 1.039284
vt -0.605742 1.723295
vt -0.605742 2.054240
vt -0.802008 2.054240
vt -0.802008 1.723295
vt 0.325052 2.427774
vt 0.325052 1.555557
vt 0.665955 1.555557
vt 0.665955 2.427774
vt 0.644539 0.891316
vt 0.644539 1.673727
vt 0.181861 1.673727
vt 0.181861 0.891316
vt 0.507848 -0.259563
vt 0.507848 0.115248
vt 0.311582 0.115247
vt 0.311582 -0.259563
vt 1.789285 3.255839
vt 1.789285 4.043040
vt 1.326607 4.043040
vt 1.326607 3.255839
vt 0.414138 -0.164776
vt 0.414138 0.210305
vt 0.205913 0.210705
vt 0.205913 -0.164105
vt 0.591138 0.664474
vt 0.591138 1.193884
vt 0.394872 1.193884
vt 0.394872 0.664474
vt 0.179393 1.188479
vt 0.179393 0.659068
vt 0.375659 0.659068
vt 0.375659 1.188479
vt 1.784530 1.665289
vt 1.784530 1.164881
vt 1.980796 1.164881
vt 1.980796 1.665289
vt -0.409476 1.723295
vt -0.409476 2.054240
vt -0.605742 2.054240
vt 0.591138 1.723295
vt 0.394872 1.723295
vt 0.413025 0.519718
vt 0.413025 0.851022
vt 0.216760 0.851022
vt 0.216760 0.519718
s 1
usemtl Madera.001
f 1/1/1 2/2/1 4/3/1 3/4/1
f 3/5/2 4/6/2 8/7/2 7/8/2
f 7/9/3 8/10/3 6/11/3 5/12/3
f 5/13/4 6/14/4 2/15/4 1/16/4
f 3/17/5 7/18/5 5/13/5 1/19/5
f 8/7/6 4/20/6 2/21/6 6/14/6
f 9/22/1 10/23/1 12/24/1 11/25/1
f 11/26/7 12/27/7 16/7/7 15/18/7
f 15/28/3 16/29/3 14/30/3 13/31/3
f 13/13/8 14/14/8 10/15/8 9/16/8
f 11/17/5 15/18/5 13/13/5 9/19/5
f 16/7/6 12/20/6 10/21/6 14/14/6
f 17/32/3 18/33/3 20/27/3 19/26/3
f 19/34/5 20/35/5 24/36/5 23/37/5
f 23/18/1 24/7/1 22/14/1 21/13/1
f 21/38/6 22/39/6 18/40/6 17/41/6
f 19/17/9 23/18/9 21/13/9 17/19/9
f 24/7/10 20/20/10 18/21/10 22/14/10
f 25/32/3 26/33/3 28/27/3 27/26/3
f 27/42/5 28/43/5 32/44/5 31/45/5
f 31/18/1 32/7/1 30/14/1 29/13/1
f 29/46/6 30/47/6 26/48/6 25/16/6
f 27/17/9 31/18/9 29/13/9 25/19/9
f 32/49/10 28/50/10 26/51/10 30/52/10
f 33/53/1 34/54/1 36/55/1 35/56/1
f 35/57/5 36/58/5 40/59/5 39/60/5
f 39/61/3 40/62/3 38/63/3 37/64/3
f 37/65/6 38/66/6 34/67/6 33/68/6
f 35/69/10 39/70/10 37/71/10 33/72/10
f 40/7/9 36/20/9 34/21/9 38/14/9
f 41/73/1 42/74/1 44/75/1 43/26/1
f 43/76/5 44/77/5 48/78/5 47/79/5
f 47/80/3 48/81/3 46/82/3 45/83/3
f 45/84/6 46/85/6 42/86/6 41/87/6
f 55/88/3 53/89/3 80/13/3 79/18/3
f 48/7/9 44/20/9 42/21/9 46/14/9
f 49/90/1 50/91/1 52/92/1 51/93/1
f 51/94/5 52/95/5 56/96/5 55/97/5
f 55/98/3 56/99/3 54/100/3 53/101/3
f 53/102/6 54/103/6 50/15/6 49/104/6
f 43/105/5 47/106/5 75/107/5 73/108/5
f 56/7/9 52/20/9 50/21/9 54/14/9
f 57/109/1 58/110/1 60/111/1 59/112/1
f 59/113/5 60/114/5 64/115/5 63/116/5
f 63/117/3 64/118/3 62/119/3 61/120/3
f 61/121/6 62/122/6 58/123/6 57/124/6
f 67/125/5 71/126/5 87/127/5 85/128/5
f 64/7/9 60/20/9 58/21/9 62/14/9
f 65/129/1 66/130/1 68/131/1 67/132/1
f 67/133/5 68/134/5 72/135/5 71/136/5
f 71/137/3 72/138/3 70/139/3 69/140/3
f 69/141/6 70/142/6 66/143/6 65/144/6
f 45/145/6 41/146/6 74/147/6 76/148/6
f 72/7/9 68/20/9 66/21/9 70/14/9
f 73/17/10 75/18/10 76/13/10 74/19/10
f 77/17/10 79/18/10 80/13/10 78/19/10
f 81/17/10 83/18/10 84/13/10 82/19/10
f 85/17/10 87/18/10 88/13/10 86/19/10
f 61/149/6 57/150/6 82/151/6 84/152/6
f 49/153/1 51/154/1 77/155/1 78/156/1
f 59/157/5 63/158/5 83/159/5 81/160/5
f 71/161/3 69/162/3 88/163/3 87/164/3
f 65/165/1 67/166/1 85/167/1 86/32/1
f 47/168/3 45/169/3 76/170/3 75/171/3
f 53/172/6 49/173/6 78/174/6 80/175/6
f 41/176/1 43/177/1 73/178/1 74/179/1
f 51/180/5 55/181/5 79/182/5 77/183/5
f 63/184/3 61/185/3 84/186/3 83/187/3
f 69/188/6 65/189/6 86/190/6 88/191/6
f 57/192/1 59/193/1 81/194/1 82/195/1
usemtl Piedra
f 109/196/1 125/197/1 119/198/1 91/199/1
f 97/200/5 136/201/5 127/202/5 95/203/5
f 111/204/3 130/205/3 131/206/3 93/207/3
f 103/208/6 139/209/6 123/210/6 89/211/6
f 117/212/10 111/213/10 93/214/10 105/215/10
f 118/216/3 90/217/3 152/218/3 154/219/3
f 101/220/6 120/221/6 163/222/6 144/223/6
f 112/224/1 96/225/1 156/226/1 157/227/1
f 114/228/1 100/229/1 149/230/1 150/231/1
f 109/232/10 115/233/10 103/234/10 89/235/10
f 115/233/10 116/236/10 104/237/10 103/234/10
f 116/236/10 117/212/10 105/215/10 104/237/10
f 93/238/6 131/239/6 137/240/6 105/241/6
f 105/241/6 137/240/6 138/242/6 104/243/6
f 104/243/6 138/242/6 139/209/6 103/208/6
f 91/244/5 119/245/5 134/246/5 99/247/5
f 99/247/5 134/246/5 135/248/5 98/249/5
f 98/249/5 135/248/5 136/201/5 97/200/5
f 98/250/10 97/251/10 117/212/10 116/236/10
f 99/252/10 98/250/10 116/236/10 115/233/10
f 91/253/10 99/252/10 115/233/10 109/232/10
f 120/254/3 124/255/3 145/256/3 163/257/3
f 94/258/1 128/259/1 159/260/1 160/261/1
f 108/262/1 121/263/1 153/264/1 151/265/1
f 96/266/6 102/267/6 155/268/6 156/269/6
f 97/251/10 95/270/10 111/213/10 117/212/10
f 95/271/3 127/272/3 130/205/3 111/204/3
f 89/273/1 123/274/1 125/197/1 109/196/1
f 110/275/9 92/276/9 119/277/9 125/278/9
f 92/276/9 100/279/9 134/280/9 119/277/9
f 100/279/9 114/281/9 141/282/9 134/280/9
f 114/281/9 110/275/9 125/278/9 141/282/9
f 108/283/9 90/284/9 123/285/9 139/286/9
f 121/287/9 108/283/9 139/286/9 141/282/9
f 90/284/9 118/288/9 125/278/9 123/285/9
f 118/288/9 121/287/9 141/282/9 125/278/9
f 102/289/9 96/290/9 127/291/9 136/292/9
f 96/293/9 112/294/9 130/295/9 127/296/9
f 113/297/9 102/298/9 136/299/9 140/300/9
f 112/301/9 113/302/9 140/303/9 130/304/9
f 128/305/9 94/306/9 131/307/9 130/308/9
f 94/309/9 106/310/9 137/311/9 131/312/9
f 106/313/9 129/314/9 140/315/9 137/316/9
f 129/317/9 128/318/9 130/319/9 140/320/9
f 120/321/9 101/322/9 135/323/9 134/324/9
f 101/325/9 126/326/9 136/327/9 135/328/9
f 132/329/9 107/330/9 138/331/9 137/311/9
f 107/330/9 122/332/9 139/286/9 138/331/9
f 133/333/9 132/334/9 137/335/9 140/336/9
f 122/332/9 124/337/9 141/282/9 139/286/9
f 126/338/9 133/333/9 140/336/9 136/339/9
f 124/337/9 120/340/9 134/280/9 141/282/9
f 153/341/9 154/342/9 152/343/9 151/344/9
f 159/345/9 162/346/9 161/347/9 160/348/9
f 146/349/9 142/350/9 143/351/9 165/352/9
f 142/350/9 145/353/9 166/354/9 143/351/9
f 144/355/9 163/356/9 145/357/9 142/358/9
f 164/359/9 144/360/9 142/350/9 146/349/9
f 156/361/9 155/362/9 158/363/9 157/364/9
f 149/365/9 148/366/9 147/367/9 150/368/9
f 106/369/5 94/370/5 160/371/5 161/372/5
f 110/373/5 114/374/5 150/375/5 147/376/5
f 102/377/3 113/378/3 158/379/3 155/380/3
f 126/381/6 101/382/6 144/383/6 164/368/6
f 121/384/6 118/385/6 154/386/6 153/387/6
f 129/388/3 106/389/3 161/390/3 162/391/3
f 113/392/5 112/393/5 157/394/5 158/395/5
f 107/396/5 132/397/5 165/398/5 143/399/5
f 128/400/6 129/401/6 162/402/6 159/403/6
f 122/404/5 107/405/5 143/406/5 166/407/5
f 132/408/1 133/409/1 146/410/1 165/411/1
f 124/412/3 122/413/3 166/414/3 145/415/3
f 92/416/3 110/417/3 147/418/3 148/419/3
f 90/420/5 108/421/5 151/422/5 152/384/5
f 133/409/1 126/423/1 164/424/1 146/410/1
f 100/425/6 92/426/6 148/427/6 149/428/6
